<svg xmlns="http://www.w3.org/2000/svg" viewBox="0 0 154.42 166.95"><defs><style>.a{fill:#f2ec18;}.b{fill:#dd370b;}.c,.e{fill:#a52911;}.d{fill:#3d3b1e;}.e{opacity:0.37;}.f{fill:#ccc31f;}.g{fill:#f9f5c0;}</style></defs><title>Element 13</title><polygon class="a" points="153.44 67.03 154.42 96.28 145.15 124.55 123.71 146.97 97.39 162.57 57.42 166.96 21.83 150.38 3.31 129.42 2.83 119.67 71.06 85.07 65.7 73.86 8.19 55.82 0.1 45.82 6.24 34.86 35.48 8.05 72.47 0 115.42 11.46 141.74 37.3 153.44 67.03"/><polygon class="b" points="2.96 125.09 7.83 125.89 27.5 123.37 52.71 112.78 97.99 84.56 97.99 81.68 71.87 77.49 39.6 90.6 9.35 107.74 2.51 117.23 2.96 125.09"/><polygon class="c" points="6.72 60.7 67.17 79.7 72.88 79.5 97.99 81.68 35.06 51.27 8.84 44.21 0.1 45.82 0 50.61 6.72 60.7"/><polygon class="d" points="87.84 20.24 83.44 20.41 75.1 39.86 75.1 43.19 76.77 46.53 82.28 43.15 89.59 24.14 87.84 20.24"/><polygon class="e" points="65.95 80.07 39.6 90.6 35.6 98.35 42.55 104.93 60.83 108.22 97.99 84.56 97.99 81.68 78.74 77.14 65.95 80.07"/><polygon class="f" points="21.83 150.38 57.42 166.96 97.39 162.57 123.71 146.97 145.15 124.55 154.42 97.62 153.44 67.03 140.89 101.64 115.67 119.19 59 129.79 2.7 130.52 21.83 150.38"/><path class="g" d="M92.27,10.61c1.1-.37,21.2,6.58,21.2,6.58L138,40.59l7.68,27.78L143.81,83,132.48,46.44,110.55,20.85Z"/><polygon class="g" points="80.84 24.14 78.89 29.34 84.74 28.53 80.84 24.14"/></svg>