<svg xmlns="http://www.w3.org/2000/svg" viewBox="0 0 133.57 134.3"><defs><style>.a{fill:#f2d690;}.b{fill:#0d0907;}.c{fill:#d6481a;}.d{fill:#a89461;}.e{fill:#dcdcdb;}.f{fill:#98230f;opacity:0.3;}</style></defs><title>Element 1</title><polygon class="a" points="25.18 92.7 25.91 117.15 34.67 128.1 53.65 133.94 87.59 134.3 100 128.83 108.76 119.7 110.94 88.68 101.46 72.99 69.34 66.79 42.33 72.26 32.48 79.92 25.18 92.7"/><polygon class="b" points="55.47 100.36 50.73 101.09 51.46 121.53 56.57 121.53 55.47 100.36"/><polygon class="b" points="78.47 100.73 83.57 101.82 83.94 122.26 78.47 121.89 78.47 100.73"/><path class="c" d="M24.82,104c.36-1.46,2.55-7.66,2.55-7.66l24.09-12H80.29l24.45,8.39,4.74,12,12-5.47,11.31-17.15-.73-28.83L119.7,27,92,2.55,60.95,0,26.28,15,4.74,43.06,0,68.25,5.84,90.51Z"/><polygon class="d" points="27.37 96.35 24.82 104.01 25.18 112.04 35.4 98.54 53.65 90.14 80.29 89.41 102.55 96.35 109.49 104.74 104.74 92.7 80.29 84.3 51.46 84.3 27.37 96.35"/><polygon class="e" points="119.7 27.01 132.11 53.28 133.57 77.37 118.25 76.28 105.84 61.31 106.2 43.43 109.12 30.66 119.7 27.01"/><polygon class="e" points="59.12 2.92 39.78 12.77 36.13 24.82 39.78 40.51 51.46 54.01 70.07 51.82 82.84 35.77 81.75 21.53 75.18 8.76 59.12 2.92"/><polygon class="e" points="12.41 32.85 4.74 43.06 0 68.25 5.11 86.13 18.61 86.13 22.99 75.18 22.26 60.58 17.88 43.79 12.41 32.85"/><polygon class="f" points="24.82 104.01 27.37 96.35 51.46 84.3 80.29 84.3 104.74 92.7 109.49 104.74 121.53 99.27 132.84 82.11 132.11 53.28 125.54 72.99 108.76 74.45 74.81 71.9 32.85 78.47 9.85 72.99 4.38 60.95 4.74 43.06 0 68.25 5.84 90.51 24.82 104.01"/></svg>